<?xml version="1.0" encoding="utf-8"?>
<!-- Generator: Adobe Illustrator 18.1.1, SVG Export Plug-In . SVG Version: 6.00 Build 0)  -->
<svg version="1.1" id="Ebene_1" xmlns="http://www.w3.org/2000/svg" xmlns:xlink="http://www.w3.org/1999/xlink" x="0px" y="0px"
	 viewBox="0 0 100 100" enable-background="new 0 0 100 100" xml:space="preserve">
<g>
	<circle fill="#675191" cx="62.5" cy="36.5" r="2"/>
	<path fill="#675191" d="M63.2,24.8H36.3c-6.7,0-12.2,5.5-12.2,12.2v26.9c0,6.7,5.5,12.2,12.2,12.2h26.9c6.7,0,12.2-5.5,12.2-12.2
		V37C75.4,30.3,69.9,24.8,63.2,24.8z M71.4,63.9c0,4.5-3.7,8.2-8.2,8.2H36.3c-4.5,0-8.2-3.7-8.2-8.2V37c0-4.5,3.7-8.2,8.2-8.2h26.9
		c4.5,0,8.2,3.7,8.2,8.2V63.9z"/>
	<path fill="#675191" stroke="#675191" stroke-miterlimit="10" d="M49.8,39.9c-5.8,0-10.6,4.8-10.6,10.6s4.8,10.6,10.6,10.6
		s10.6-4.8,10.6-10.6S55.6,39.9,49.8,39.9z M49.8,58.1c-4.2,0-7.6-3.4-7.6-7.6s3.4-7.6,7.6-7.6s7.6,3.4,7.6,7.6S54,58.1,49.8,58.1z"
		/>
</g>
</svg>
