<?xml version="1.0" encoding="utf-8"?>
<!-- Generator: Adobe Illustrator 18.1.1, SVG Export Plug-In . SVG Version: 6.00 Build 0)  -->
<svg version="1.1" id="Ebene_1" xmlns="http://www.w3.org/2000/svg" xmlns:xlink="http://www.w3.org/1999/xlink" x="0px" y="0px"
	 viewBox="0 0 100 100" enable-background="new 0 0 100 100" xml:space="preserve">
<g>
	<path fill="#FFFFFF" d="M58.3,38.4L69,27.8h-4.8c-0.5,0-0.9-0.4-0.9-0.9v-1.2c0-0.5,0.4-0.9,0.9-0.9h9.7c0.5,0,0.9,0.4,0.9,0.9v9.7
		c0,0.5-0.4,0.9-0.9,0.9h-1.2c-0.5,0-0.9-0.4-0.9-0.9v-4.8L61.1,41.3L58.3,38.4z"/>
	<path fill="#FFFFFF" d="M61.2,58.3l10.6,10.6v-4.8c0-0.5,0.4-0.9,0.9-0.9h1.2c0.5,0,0.9,0.4,0.9,0.9v9.7c0,0.5-0.4,0.9-0.9,0.9
		h-9.7c-0.5,0-0.9-0.4-0.9-0.9v-1.2c0-0.5,0.4-0.9,0.9-0.9H69L58.4,61.2L61.2,58.3z"/>
	<path fill="#FFFFFF" d="M38.5,40.8L28.2,30.5v4.8c0,0.5-0.4,0.9-0.9,0.9h-1.2c-0.5,0-0.9-0.4-0.9-0.9v-9.7c0-0.5,0.4-0.9,0.9-0.9
		h9.7c0.5,0,0.9,0.4,0.9,0.9v1.2c0,0.5-0.4,0.9-0.9,0.9H31l10.4,10.4L38.5,40.8z"/>
	<path fill="#FFFFFF" d="M36.8,72.6v1.2c0,0.5-0.4,0.9-0.9,0.9h-9.7c-0.5,0-0.9-0.4-0.9-0.9V64c0-0.5,0.4-0.9,0.9-0.9h1.2
		c0.5,0,0.9,0.4,0.9,0.9v4.8l10.2-10.2c0.8,1.1,1.8,2,2.9,2.8L31,71.7h4.8C36.4,71.7,36.8,72.1,36.8,72.6z"/>
</g>
<line fill="none" x1="41.4" y1="38.1" x2="38.5" y2="40.8"/>
<line fill="none" x1="61.1" y1="41.3" x2="58.3" y2="38.4"/>
<line fill="none" x1="61.2" y1="58.3" x2="58.4" y2="61.2"/>
</svg>
