<?xml version="1.0" encoding="utf-8"?>
<!-- Generator: Adobe Illustrator 18.1.1, SVG Export Plug-In . SVG Version: 6.00 Build 0)  -->
<svg xmlns="http://www.w3.org/2000/svg" xmlns:xlink="http://www.w3.org/1999/xlink" viewBox="0 0 100 100">
<g>
	<path fill="#675191" stroke="#675191" stroke-width="0.996" stroke-miterlimit="10" d="M49.5,31.2c-5.4,0-9.7,4.4-9.7,9.7
		s4.4,9.7,9.7,9.7s9.7-4.4,9.7-9.7S54.9,31.2,49.5,31.2z M49.5,47.9c-3.8,0-7-3.1-7-7s3.1-7,7-7s7,3.1,7,7S53.4,47.9,49.5,47.9z"/>
	<path fill="none" stroke="#675191" stroke-width="4.101" stroke-miterlimit="10" d="M70.8,40c0,11.7-21.1,40.9-21.1,40.9
		S28.3,51.7,28.3,40s9.5-21.2,21.2-21.2S70.8,28.2,70.8,40z"/>
</g>
</svg>
