<?xml version="1.0" encoding="utf-8"?>
<!-- Generator: Adobe Illustrator 18.1.1, SVG Export Plug-In . SVG Version: 6.00 Build 0)  -->
<svg version="1.1" id="Ebene_1" xmlns="http://www.w3.org/2000/svg" xmlns:xlink="http://www.w3.org/1999/xlink" x="0px" y="0px"
	 viewBox="0 0 100 100" enable-background="new 0 0 100 100" xml:space="preserve">
<circle fill="#FFFFFF" stroke="#FFFFFF" stroke-miterlimit="10" cx="49.9" cy="49.8" r="3.9"/>
<path fill="#FFFFFF" d="M83.2,19.2H30.4c-3.6,0-6.6,3-6.6,6.6v0.4h-0.4c-3.6,0-6.6,3-6.6,6.6v1.4h-0.1c-3.6,0-6.6,3-6.6,6.6v32.1
	c0,2.3,1.2,4.4,3.1,5.5c0.3,0.3,0.7,0.5,1.1,0.6c0.7,0.3,1.6,0.5,2.4,0.5h52.8c3.6,0,6.6-3,6.6-6.6v-1.4h0.1c3.6,0,6.6-3,6.6-6.6
	v-0.4h0.4c3.6,0,6.6-3,6.6-6.6V25.8C89.7,22.1,86.8,19.2,83.2,19.2z M16.7,75.4c-0.3,0-0.6-0.1-0.9-0.2L30,50.5l12.1,20.9l2,4H16.7z
	 M69.5,75.4H47.9l-2.6-4.5l12.2-12.2c2.2,2.3,8.2,9.4,13.7,16C70.8,75.1,70.2,75.4,69.5,75.4z M72.1,71C59,55.2,58.2,55.2,57.5,55.2
	l-0.7,0l-13.1,13L32,47.9c-0.4-0.7-1.2-1.1-2-1.1s-1.6,0.4-2,1.1L14.1,72.1V40.6c0-1.4,1.2-2.6,2.6-2.6h52.8c1.4,0,2.6,1.2,2.6,2.6
	V71z M78.7,64.9c0,1.4-1.2,2.6-2.6,2.6h-0.1V40.6c0-3.6-3-6.6-6.6-6.6H20.8v-1.4c0-1.4,1.2-2.6,2.6-2.6h52.8c1.4,0,2.6,1.2,2.6,2.6
	V64.9z M85.7,57.9c0,1.4-1.2,2.6-2.6,2.6h-0.4V32.7c0-3.6-3-6.6-6.6-6.6H27.8v-0.4c0-1.4,1.2-2.6,2.6-2.6h52.8
	c1.4,0,2.6,1.2,2.6,2.6V57.9z"/>
</svg>
