<?xml version="1.0" encoding="utf-8"?>
<!-- Generator: Adobe Illustrator 18.1.1, SVG Export Plug-In . SVG Version: 6.00 Build 0)  -->
<svg version="1.1" id="Ebene_1" xmlns="http://www.w3.org/2000/svg" xmlns:xlink="http://www.w3.org/1999/xlink" x="0px" y="0px"
	 viewBox="0 0 100 100" enable-background="new 0 0 100 100" xml:space="preserve">
<g>
	<path fill="none" stroke="#675191" stroke-width="4" stroke-miterlimit="10" d="M76.6,70.5H23.8c-2.5,0-4.6-2.1-4.6-4.6V33.8
		c0-2.5,2.1-4.6,4.6-4.6h52.8c2.5,0,4.6,2.1,4.6,4.6v32.1C81.2,68.4,79.2,70.5,76.6,70.5z"/>
	<path fill="none" stroke="#675191" stroke-width="3" stroke-miterlimit="10" d="M23.4,29.7c8,7.7,16,15.5,24,23.2
		c1.7,1.6,4.3,1.6,5.9,0c8.1-7.8,16.2-15.7,24.2-23.5"/>
	<path fill="none" stroke="#675191" stroke-width="3" stroke-miterlimit="10" d="M80,66.1c-7.8-5.4-15.6-10.9-23.4-16.3"/>
	<path fill="none" stroke="#675191" stroke-width="3" stroke-miterlimit="10" d="M44.1,49.7c-7.9,5.5-15.7,11-23.6,16.4"/>
</g>
</svg>
