<?xml version="1.0" encoding="utf-8"?>
<!-- Generator: Adobe Illustrator 18.1.1, SVG Export Plug-In . SVG Version: 6.00 Build 0)  -->
<svg version="1.1" id="Ebene_1" xmlns="http://www.w3.org/2000/svg" xmlns:xlink="http://www.w3.org/1999/xlink" x="0px" y="0px"
	 viewBox="0 0 100 100" enable-background="new 0 0 100 100" xml:space="preserve">
<g>
	<circle fill="none" stroke="#675191" stroke-width="4" stroke-miterlimit="10" cx="49.9" cy="49.9" r="25.3"/>
	<path fill="#675191" d="M60.1,59.7l-0.6,0.6c-0.4,0.4-1.1,0.4-1.5,0L39.2,41.6c-0.4-0.4-0.4-1.1,0-1.5l0.6-0.6
		c0.4-0.4,1.1-0.4,1.5,0l18.8,18.8C60.5,58.7,60.5,59.3,60.1,59.7z"/>
	<path fill="#675191" d="M59.4,39.5l0.6,0.6c0.4,0.4,0.4,1.1,0,1.5L41.3,60.4c-0.4,0.4-1.1,0.4-1.5,0l-0.6-0.6
		c-0.4-0.4-0.4-1.1,0-1.5l18.8-18.8C58.4,39.1,59,39.1,59.4,39.5z"/>
</g>
</svg>
