<?xml version="1.0" encoding="utf-8"?>
<!-- Generator: Adobe Illustrator 18.1.1, SVG Export Plug-In . SVG Version: 6.00 Build 0)  -->
<svg version="1.1" id="Ebene_1" xmlns="http://www.w3.org/2000/svg" xmlns:xlink="http://www.w3.org/1999/xlink" x="0px" y="0px"
	 viewBox="0 0 423 54" enable-background="new 0 0 423 54" xml:space="preserve">
<path fill="#675191" d="M378.9,37.5c-5.2-2-6.4-13.2-11.8-14c-10.6-1.6-22.1,6.9-22.1,6.9c-0.3-0.7-0.8-1.4-1.3-2
	c-0.5-0.5-1.4-0.9-1.9-1.4c-0.6-0.8,0.3-2.1,0.6-3c0.5-1.2,0.5-2.5,0.3-3.8c-0.1-0.8-0.3-1.6-0.7-2.3c-1.4-2.2-4.2-2.3-6-0.9
	c-1.8,1.4-2.9,3.4-4.1,5.1c-0.3,0.5-1.6,1.7-1.6,2.2v0.3c-2.2,1.9-4.3,3.8-6.4,5.6c-1.2,1-2.3,2.1-3.7,2.9c-1.3,0.8-2.9,1.3-4.4,1.3
	c-0.3,0-0.6-0.1-0.8-0.3c-0.5-0.3-0.3-1-0.1-1.6c0.6-2,1.4-3.9,2.4-5.8c0.3-0.5,2.9-5.1,3-5.6c0.1-0.6,0-2.3-0.4-2.7
	c-0.5-0.5-1.4-0.5-2.1-0.3s-1.3,0.5-2,1c-0.6,0.3-2.2,2.1-3,2.7c-0.3,0.3-1.5,1.4-1.6,1.2c0.8-1.2,1.1-2,1.4-2.7
	c0.7-2.3,0.8-3.4,0.2-4.7c-0.8-0.5-1.2-0.5-2-0.5c-0.3-0.1-1,0.2-1.3,0.4c-1.5,0.8-2.6,2.3-3.2,3.9c-0.2,0.7-0.4,1.6-0.3,2.5
	c0.2,0.8,0.9,3.1,1.7,3.3c0.1,0,0.1,0,0.2,0.1c-1.7,1.5-4.3,3.7-6.1,5.3c-0.6,0.3-1.1,0.9-1.7,1.2c-0.5,0.2-1.2,0.2-1.8,0
	c-0.8-0.2-1.2-1-1.6-1.7c-0.5-0.8-0.1-1.6,0-2.6c0.3-1.3,0.6-2.6,0.6-4c0-1.5-0.1-3.1-0.5-4.5c-0.2-0.8-0.8-1.5-1.4-2
	c-1-0.8-3.2-0.9-4.4-0.7c-1.8,0.3-3.4,1.2-4.7,2.5c-1.7,1.7-2.5,4-2.8,6.4c-0.5,0.2-0.9,0.3-1.3,0.2c-0.3-0.2-0.1,0.5-4.4-2.9
	c-0.4-0.1-0.3-0.5-0.4-0.8c-0.1-0.7,0.1-1.3,0.2-2c0.1-0.8,0.1-1.5,0.1-2.2c-0.1-0.4-0.1-0.8-0.3-1.1c-0.5-1-1.2-1.6-2.2-1
	c-0.8,0.5-1.4,1.5-1.6,2.4c-0.3,1.2-0.1,2.5,0.5,3.6c0.3,0.5,0.8,0.8,0.9,1.3s-0.1,1.4-0.2,2c-0.1,0.6-0.2,1.4-0.3,2
	c-0.3,1.9-0.8,4-2.1,5.5c-0.1,0.1-0.2,0.3-0.3,0.3c-0.3,0.2-0.6,0.3-0.9,0.3c-0.5,0-0.9-0.1-1.3-0.3c-1.2-0.7-1.1-2.1-0.6-3.2
	c0.5-1.3,1-2.7,1-4.2c-0.1-0.5-0.3-1-0.7-1.2c-0.6-0.4-1.3-0.2-1.8,0.1c-1.3,0.9-1.6,2.5-1.5,4c0.1,1.6,0.3,3.8-1.8,4.1
	c-0.7,0.1-1.5-0.2-2-0.8c-1.1-1.6-0.5-4.4-0.1-6c0.5-2.1,1.2-4.3,1.6-6.5c0.1-0.7,0.3-1.5-0.1-2.1c-0.2-0.3-0.6-0.6-1-0.7
	c-0.5-0.1-1,0.3-1.4,0.6c-0.3,0.4-0.5,0.9-0.7,1.4c-0.5,1.3-0.8,2.7-1.2,4c-0.3,1.3-0.6,2.6-0.8,3.9c-2.1,1.8-5.2,4.5-6.7,5.8
	c-0.6,0.5-1.9,1.5-2.1,1.7c-0.5,0.4-1.2,0.8-1.8,0.6c-0.5-0.2-0.7-0.7-0.9-1.2c-1.4-4.3,0.1-9,0.3-13.5c0.1-1-0.1-2.3-1.1-2.7
	c-1-0.3-1.9,0.6-2.5,1.4c-1.2,1.6-2.5,3.3-3.6,4.9c-0.6,0.8-1.1,1.8-1.7,2.7c-0.5,0.7-1.2,1.5-1.5,2.3c-0.1-0.1-0.1-0.1-0.1-0.3
	c0-0.5-0.1-0.9-0.1-1.4c-0.1-0.9-0.1-1.8,0.1-2.7c0.3-1.8,1.2-3.3,2.1-4.7c1-1.6,1.7-3.3,2.2-5c1.1-3.8,1.2-8-0.7-11.6
	c-0.2-0.5-0.5-0.9-0.9-1.1s-1-0.1-1.5,0.1c-1.8,0.6-3.3,1.9-3.9,3.8c-0.6,1.6-0.6,3.4-0.6,5.1c0,5.2-0.2,10.4-0.2,15.6
	c-0.1,0-0.1,0.1-0.2,0.1c-1.4,1.2-2.9,2.2-4.5,3.2c-1.5,1-2.9,2-4.6,2.5c-0.6,0.2-1.6,0.5-2.3,0.3c-1.4-0.4-2-2.6-2.2-3.8
	c-0.3-2.3,0.3-4.7,0.8-7c0.2-0.8,0.5-1.7,1.5-2.2c0.5-0.3,0.8-0.1,1.2,0.3c0.5,0.5,1.3,1.7,2,0.8c1-1.2-1.3-3.4-2.3-3.8
	c-0.5-0.1-1-0.1-1.4-0.1c-0.2-0.2-0.7-0.6-3.9-1.2c-4.9-1-10.5,3.4-11.1,3.8c-0.3,0.1-0.5,0.3-0.7,0.3c-0.3,0-0.5-0.1-0.6-0.3
	c-1.1-0.8-2.3-1.6-3.4-2.3c-2.4-1.6-4.9-3.4-6.7-5.7c-0.7-1-1.2-2-1.3-3.1c-0.1-1.4,0.5-2.9,1.6-3.8c1.2-1.1,3.1-1.8,4.7-1.2
	c0.9,0.3,1.7,1,2.2,1.9c0.3,0.5,0.6,1.2,0.8,1.8c0.2,0.5,0.8,1.8,1.5,1.2c0.4-0.4,0.6-1.2,0.4-1.8c-0.3-0.5-1.3-2.7-1.6-3.1
	c-0.8-1.1-1.9-2-3.3-2.3c-1.8-0.4-3.7,0.1-5.3,1c-1.6,0.9-2.8,2.3-3.5,4c-0.1,0.1-0.1,0.2-0.1,0.3c-7.7,7.1-25.3,23.5-27.2,25.1
	c-0.6,0.3-1.1,0.9-1.7,1.2c-0.5,0.2-1.2,0.2-1.8,0c-0.8-0.2-1.2-1-1.6-1.7c-0.5-0.8-0.1-1.6,0-2.6c0.3-1.3,0.7-2.6,0.7-4
	c0-1.5-0.1-3.1-0.5-4.5c-0.2-0.8-0.8-1.5-1.4-2c-1-0.8-3.2-0.9-4.4-0.7c-1.8,0.3-3.4,1.2-4.7,2.5c-1.8,1.9-2.7,4.4-2.8,7
	c-2.5,2.2-6.4,5.5-7.2,6.3c0-0.9,0.2-4.9,0.2-5.3c0.2-3.3,0.6-7-2.6-8.8c-1.4-0.8-3.1-1.6-4.7-1.2c-1.1,0.3-2,1-2.7,2
	c-1.2,1.6-1.8,3.7-2.2,5.7c0,0,0,0-0.1,0.1c-0.6,0.6-1.3,1.2-2,1.7c-1.3,1.2-2.5,2.3-3.8,3.4c-1.1,1-2.1,2-3.1,3
	c-0.8,0.8-1.9,2-3.2,1.8c-0.7-0.1-1.3-0.7-1.7-1.4c-0.8-1.3-1.1-2.8-1.2-4.3c-0.2-1.5-0.2-2.9,0.5-4.3c1.2-2.2,2.5-4.3,3.5-6.6
	c1-2.5,1.9-5.1,2.3-7.8c0.3-2.3,0.6-4.7,0.2-7.2c-0.3-1.7-1.8-2.5-3.5-2s-2.7,1.8-3.3,3.4c-0.2,0.5-0.3,1.1-0.4,1.7
	c-1.4,0.9-4.1,2.6-6.6,3.9c-2.8,1.4-5.6,1.6-5.6,1.7c-0.1-0.9-0.1-1.8-0.3-2.7c-0.6-2.4-2.2-5.5-4.3-7.2c-3-2.5-6.2-2.3-8.8-0.3
	c-0.8,0.6-1.7,1.5-2.3,2.5c-2.7,3.9-3.3,8.8-3.8,13.4c-0.6,5.1,0,10.3,2,15.1c-0.2-0.1-0.4-0.2-0.6-0.4c-0.4-0.2-22.6-19.7-38-15.6
	c-9.2,2.4-11.4,10-19,13.3c-3.6,1.6-9.5-0.9-12.6-0.1c-7.4,2-10.2,5.6-10.5,5.5c-0.2-0.1,5-3.3,12.5-4.6c3.4-0.6,7,3.8,12.8-0.3
	c10.2-7.1,10.6-9.3,16.9-11.8c10.7-4.1,35.9,14.6,36.8,15.1c0.9,0.6,1.6,1.1,2.2,1.5c1.2,0.9,1.9,1.4,1.9,1.4l0.1-0.1
	c2.1,2,5,3,7.9,2.3c2.1-0.5,3.9-2.7,4.8-4.4c1.1-2.1,1.6-4.5,1.8-6.8c0.4-3.2,0.8-6.3,0.7-9.5c0-1.6-0.2-3.1-0.2-4.7
	c0,0,3.2-0.5,6.1-2.2c2.3-1.3,4.4-3.3,5.7-4.5c-0.1,0.3-0.1,0.6-0.2,1c-0.5,2.9-1,5.7-1.4,8.5c-0.8,5.9-2,12,1.2,17.4
	c0.3,0.5,0.6,1,1,1.6c0.4,0.5,0.8,0.9,1.4,1.2c0.8,0.5,1.8,0.2,2.7-0.3c2.9-1.5,5.1-3.8,7.3-6c0.7-0.8,1.6-1.4,2.4-2
	c0.4-0.3,0.7-0.6,1-0.9c-0.1,1.9,0.3,3.9,1.5,5.4c0.8,1,1.9,1.8,3.3,1.5c0.8-0.2,1.5-0.7,2-1.3c0.6-0.6,1-1.3,1.4-2
	c0.2-0.3,0.3-1.1,0.8-0.7c0.7,0.6,0.3,3.3-0.2,3.9c-0.4,0.6-1,0.8-1.6,1.2c-2.9,1.5-5.9,3.8-6.4,7.2c-0.3,1.4-0.2,2.9,0.2,4.3
	c0.9,3.1,4.1,5.3,7.3,5c2.9-0.2,3.5-3.2,3.8-5.5c0.2-2,0.1-4,0.1-6c-0.1-2,0-3.9,0.1-5.8c1-0.4,4.5-3.6,7.2-6.2
	c0,0.8,0.1,1.6,0.3,2.4c0.3,1.4,0.7,2.8,2.1,3.5c1.8,1,3.8,1,5.7,0.1c0.8-0.3,1.4-1,2-1.6c0.3-0.3,0.6-0.6,0.9-0.8
	c0.5-0.3,0.6,0.2,1,0.6c0.2,0.4,0.5,0.8,0.8,1.1c0.9,0.9,2.1,1.2,3.4,0.9c1.7-0.4,3.3-2.3,4.6-3.4c1.2-1.1,17-16.8,24.5-24.4
	c-0.5,1.8-0.4,3.8,0.2,5.6c0.8,2.1,2.3,4,4.3,5.3c2,1.3,4.6,2,6.4,3.7c0.3,0.3,0.5,0.7,0.5,1c0,0.7-0.8,1.4-1.5,2.2
	c-0.9,1.1-1.8,2.2-2.6,3.4c-1.6,2.2-2.4,4.6-2.3,7.4c0.1,3.4,4,4.4,6.9,3.8c1.8-0.3,3.4-1.3,4.8-2.5c1.3-1,2.4-2.4,3.1-4
	c0.5-1.2,0.6-2.3,0.6-3.6c-0.1-1.2-0.5-2.5-1.1-3.6c-0.8-1.4-1.6-2.9-2.5-4.3c-0.1-0.2-0.3-0.5-0.5-0.7c0.1-0.1,5.5-3.6,9.7-3.6
	c1.3,0,2.2,0.1,2.8,0.2c0,0,0,0,0,0c-1.2,0.9-1.8,2.4-2.2,3.8c-0.6,2-0.8,4.1-0.9,6.2c0,1.9,0,3.8,1.3,5.3c1,1.1,2.5,1.8,4,2
	c2.2,0.3,4-1.2,5.7-2.3c2-1.2,4-2.4,5.8-3.8c0,3.1,0,6.1,0.2,9.2c0,0.1,0,0.3,0.1,0.4c0.1,0.1,0.2,0.1,0.3,0.2c1,0.1,2-0.7,2.4-1.7
	c0.5-0.9,0.5-1.9,0.7-3c0.8-5.3,4.1-10.1,7.5-14c0.3-0.3,0.6-0.6,1-0.5c0.5,0.1,0.5,0.8,0.5,1.2c-0.2,2.3-0.8,4.4-1.1,6.7
	c-0.3,2.2-0.4,4.5,0.3,6.6c0.4,1.2,1.2,2.5,2.4,2.7c0.8,0.1,1.6-0.3,2.3-0.7c1.9-1.1,3.5-2.6,5.2-4.1c1-0.9,2.1-1.8,3.1-2.8
	c0,1.2,0.1,2.4,0.4,3.6c0.2,1,0.6,2,1.4,2.5c0.6,0.3,1.3,0.5,2,0.5c1.6-0.1,3.3-0.8,4.5-2c0.7,1.2,1.9,2,3.2,2.1
	c2.3,0.3,4-1.4,4.9-3.3c0.6-1.4,1-2.9,1.3-4.3l0.6-2.9c0.1-0.8,1.2,1,2.3,1.8c1.8,1.2,3.1,1.4,4.2,1.2c0,1.1,0.1,2.1,0.3,3.1
	c0.3,1.4,0.7,2.8,2.1,3.5c1.8,1,3.8,1,5.7,0.1c0.8-0.3,1.4-1,2-1.6c0.3-0.3,0.6-0.6,0.9-0.8c0.5-0.3,0.7,0.2,1,0.6
	c0.2,0.4,0.5,0.8,0.8,1.1c0.9,0.9,2.1,1.2,3.4,0.9c1.7-0.4,3.3-2.3,4.5-3.4c1.6-1.4,3.2-2.9,4.8-4.4c0.2-0.2,0.4-0.5,0.5-0.8
	c0.7,0,1.4-0.1,1.9-0.2c1.3-0.1,2.7-0.5,3.6-1c-1.2,1.7-2.2,3.4-3.8,7c-0.3,1.2-0.3,2.5,0.4,3.5c0.5,0.8,1.4,1.2,2.3,1.4
	c0.9,0.2,1.9,0.1,2.8-0.1c2.5-0.5,4.7-1.8,6.8-3.4c2-1.6,3.8-3.4,5.7-5.1c0.4-0.3,0.8-0.7,1.1-1.2v0.1c1.2-1.7,2.4-3.3,3.6-4.9
	c1-1.4,2-2.7,3.6-3.5c0.3-0.1,0.7-0.3,1-0.2c0.6,0.1,0.9,0.7,1.1,1.2c0.6,2,0.5,4.3-0.3,6.2c-1,2.9-3.8,4.5-5.5,6.8
	c-0.3,0.3-0.5,0.6-0.5,1c-0.2,0.6,1,2.3,1.7,1.8c1.2-0.9,4.6-6,5.2-5.5c1.8,1.6,2.3,3.1,1,4.7c-3.2,4-5,8.8-6.8,13.6
	c-0.5,1-0.7,2.1-0.6,3.3c0.2,1.1,0.9,2.1,2,2.5c0.9,0.3,1.9-0.1,2.8-0.5c3.6-1.8,5.4-6.2,6.2-9.8c0.7-3.3,0.8-6.6,0.7-10
	c0-0.3,0-0.6,0.1-0.9c0.8-0.7,11.9-9.2,21.7-7.7c5.1,0.8,5.4,13.8,10.1,16.1c9.1,4.4,44.3-25.7,45.8-26.7
	C418.9,15,389.3,41.5,378.9,37.5z M237.7,15c0.1-2.9,0.3-5.9,0.5-8.8c0.1-0.9,0.1-1.8,0.4-2.7c0.6-1.9,1.6,0.1,1.9,1.1
	c0.5,1.2,0.5,2.4,0.5,3.6c0.1,3.6-1,7.1-2.9,10.1c-0.1,0.1-0.1,0.3-0.3,0.3c-0.2-0.1-0.3-0.3-0.2-0.5C237.6,17.1,237.6,16,237.7,15z
	 M89.4,3.8c0.9-0.7,2-1.2,3.1-0.8c1.7,0.5,2.8,2.2,3.6,3.7c0.7,1.5,1.1,3.1,1.2,4.7V12v0.1c0,0-0.1,0.1-0.1,0.1
	c-0.9,0.1-4.4-1-5.1-1.4c-1.4-0.8-2.7-2.1-3.3-3.7C88.2,5.5,88.3,4.7,89.4,3.8z M97.2,27.1c-0.5,3.4-1.3,9.8-5.8,10.3
	c-1.2,0.1-2.3-0.5-3.2-1.4c-3.3-3.5-4.5-9.8-4.6-14.4c0-4.7,0.3-9.4,2.3-13.8c0.1-0.3,0.4-0.5,0.7-1c0.8,2.3,2.1,4.1,4.2,5.3
	c2,1.1,4.2,1.3,6.5,1.6C97.6,14.3,97.8,23.2,97.2,27.1z M112.7,13.4c0.3-2,0.7-4,1.2-6c0.3-1,0.5-2,0.9-2.9c0.2-0.5,0.6-1.7,1.2-1.6
	c0.5,0.1,0.8,1.3,0.8,1.7c0,5.8-1.2,12.1-4.5,17c0,0.1-0.1,0.1-0.1,0.1l-0.6,1C111.3,19.5,112.2,16.4,112.7,13.4z M134.8,25.4
	c-0.4,2.3-0.7,4.7-2.3,6.4c-0.5,0.5-1.1,0.9-1.8,0.9c-0.9,0-1.6-0.8-2-1.6c-1-2-0.8-4.2-0.4-6.4c0.4-1.6,0.9-3.3,1.8-4.7
	c0.3-0.5,0.8-1,1.3-1.4c0.6-0.4,1-0.3,1.7,0.1c1,0.6,1.7,1.4,1.9,2.7c0.1,0.3,0.1,0.7,0.1,1.1C135.2,23.5,135,24.4,134.8,25.4z
	 M136,39.5c-0.1,2.5-0.3,4.9-0.5,7.4c0,0.8-0.3,2-1.2,2.6c-1,0.7-2.4,0.1-3.3-0.7c-2.4-1.8-2.9-5.8-1.4-8.3c1.2-1.9,3.3-3.3,5.4-3.8
	C136.3,36.4,136,38.7,136,39.5z M155.5,25.5c0.1,1.2,0.5,2.5,0.4,3.7c-0.1,2.9-3.6,4.9-5.5,3.1c-1.8-1.8-1.4-4.5-1-6.7
	c0.5-2.4,1.6-4.6,3.4-6.3c1.1-1,2.3-1.4,3.8-0.4C155.8,21,155.5,23.3,155.5,25.5z M157.8,28.3c-1.2-0.4-0.8-7.2,0.5-8.2
	C159.1,20.9,158.6,27.6,157.8,28.3z M207.6,31.6c-0.1,0.8-0.5,1.7-1,2.3c-0.8,1-1.9,2-2.9,2.7c-0.7,0.5-1.6,0.8-2.5,0.8
	c-2.1,0.1-3.7-0.5-3.4-3.3c0.1-1,0.1-2,0.5-2.8c1.2-3.2,3.3-5.7,5.9-8.2C206.3,25.7,208.2,28.1,207.6,31.6z M268.4,27.7
	c-0.1,0.3-0.2,0.5-0.3,0.7c-0.3-0.1-0.3-0.5-0.3-0.8c0-0.5,0.1-1.2,0.4-1.6c0.3-0.3,0.5-0.2,0.6,0.2
	C268.8,26.7,268.6,27.2,268.4,27.7z M276.4,18.3c0,0.3-0.1,0.6-0.1,1c-0.1,0.7-0.1,1.4-0.6,1.7c-0.8-0.7-1-1.6-0.8-2.6
	c0.1-0.4,0.1-1,0.5-1.2C276.2,16.6,276.5,17.9,276.4,18.3z M293,25.5c0.1,1.2,0.5,2.5,0.4,3.7c-0.1,2.9-3.6,4.9-5.5,3.1
	c-1.8-1.8-1.4-4.5-1-6.7c0.5-2.4,1.6-4.6,3.4-6.3c1.1-1,2.3-1.4,3.8-0.4C293.3,21,292.9,23.3,293,25.5z M295.3,28.3
	c-1.2-0.4-0.8-7.2,0.5-8.2C296.6,20.9,296.1,27.6,295.3,28.3z M308.7,23.8c-0.8,0-1.2-0.9-1.4-1.5c-0.2-1.1,0.5-2.8,1-3.7
	c1.4-1.8,2.6-2.2,2.9-1.2c0.1,0.6,0.2,1.2,0.1,1.8C311.2,20.1,311,22.9,308.7,23.8z M341.2,45.8c-0.8,1.9-2.3,4.7-4.2,5.8
	c-0.4,0.3-0.9,0.3-1.3,0.1c-0.8-0.6-0.6-1.8-0.3-2.6c1.4-4.7,3.5-10.3,7-13.8c0.1,1.2,0.2,2.3,0.2,3.4
	C342.7,41.1,342.3,43.5,341.2,45.8z"/>
</svg>
