<?xml version="1.0" encoding="utf-8"?>
<!-- Generator: Adobe Illustrator 18.1.1, SVG Export Plug-In . SVG Version: 6.00 Build 0)  -->
<svg version="1.1" id="Ebene_1" xmlns="http://www.w3.org/2000/svg" xmlns:xlink="http://www.w3.org/1999/xlink" x="0px" y="0px"
	 viewBox="0 0 70 50" enable-background="new 0 0 70 50" xml:space="preserve">
<g>
	<g>
		<path fill="#FFFFFF" d="M35.4,41.4c-1.2,0-2.5-0.2-3.7-0.5c-3.8-1-7-3.4-9-6.7c-2-3.4-2.5-7.3-1.6-11.1c1.7-6.5,7.5-11,14.2-11
			c1.2,0,2.5,0.2,3.7,0.5c3.8,1,7,3.4,9,6.7c2,3.4,2.5,7.3,1.6,11.1C47.9,36.9,42.1,41.4,35.4,41.4z M35.4,12.6
			c-6.4,0-12.1,4.4-13.7,10.6c-0.9,3.7-0.4,7.5,1.5,10.7c1.9,3.2,5,5.6,8.6,6.5c1.2,0.3,2.3,0.5,3.5,0.5c6.4,0,12.1-4.4,13.7-10.6
			C51,22.7,46.5,15,38.9,13.1C37.8,12.8,36.6,12.6,35.4,12.6z"/>
	</g>
	<g>
		<path fill="#FFFFFF" d="M35.4,42.7c-1.3,0-2.7-0.2-4-0.5c-4.1-1.1-7.6-3.7-9.8-7.4c-2.2-3.7-2.8-8-1.7-12.1
			c1.8-7.1,8.2-12,15.5-12c1.3,0,2.7,0.2,4,0.5c4.1,1.1,7.6,3.7,9.8,7.4c2.2,3.7,2.8,8,1.7,12.1C49,37.8,42.7,42.7,35.4,42.7z
			 M35.4,11.3c-7,0-13.1,4.8-14.9,11.6c-1,4-0.4,8.1,1.6,11.7c2.1,3.5,5.4,6.1,9.4,7.1c1.3,0.3,2.6,0.5,3.9,0.5
			c7,0,13.1-4.8,14.9-11.6c2.1-8.2-2.8-16.6-11.1-18.8C38,11.5,36.7,11.3,35.4,11.3z"/>
	</g>
	<g>
		<path fill="#FFFFFF" d="M18.4,6.8c0,0,1.2-1.2,3.5-3c0.6-0.4,1.2-0.9,1.9-1.5c0.4-0.3,0.9-0.6,1.4-0.7c0.5-0.2,1.2-0.2,1.6-0.2
			c2,0,4.3,0,6.8,0c2.5,0,5.2,0,8.1,0c0.7,0,1.4,0,2.2,0l0.6,0c0.2,0,0.4,0,0.7,0.1c0.4,0.1,0.9,0.2,1.3,0.4
			c0.2,0.1,0.4,0.2,0.6,0.3l0.5,0.3l0.9,0.7c0.6,0.4,1.3,0.9,1.9,1.3l1,0.7l0.5,0.3c0.1,0.1,0.3,0.2,0.4,0.2C52.4,5.9,52.7,6,53,6
			c0.3,0,0.7,0,1.1,0c1.6,0,3.2,0,4.9,0c1.6,0,3.3,0,5,0c0.8,0,1.7-0.1,2.7,0.3c0.9,0.3,1.8,1,2.3,1.8c0.6,0.8,0.8,1.9,0.7,2.8
			l0,2.5c0,1.7,0,3.3,0,5c0,3.3,0,6.5-0.1,9.6s0,6.2-0.1,9c0,1.4,0,2.8,0,4.2c0,0.7,0,1.3,0,2c0,0.8-0.3,1.5-0.7,2.1
			c-0.8,1.2-2.2,1.9-3.5,2c-1.2,0-2.2,0-3.3,0c-2,0-3.8-0.1-5.3-0.1c-2.9-0.1-4.6-0.2-4.6-0.2s1.7-0.2,4.6-0.4
			c1.5-0.1,3.2-0.2,5.3-0.3c1,0,2.1-0.1,3.2-0.1c1-0.1,1.9-0.6,2.5-1.5c0.3-0.4,0.5-1,0.5-1.5c0-0.6,0-1.3,0-2c0-1.3,0-2.7,0-4.2
			c0-2.9,0-5.9,0-9c0-3.1,0-6.4,0-9.6c0-1.6,0-3.3,0-5l0-2.5c0-0.8-0.1-1.4-0.5-2c-0.4-0.6-0.9-1-1.6-1.2c-0.6-0.2-1.4-0.2-2.2-0.2
			c-1.7,0-3.3,0-5,0c-1.6,0-3.3,0-4.9,0c-0.4,0-0.8,0-1.3,0c-0.5-0.1-0.9-0.2-1.4-0.4c-0.2-0.1-0.4-0.2-0.6-0.4l-0.5-0.4l-1-0.7
			c-0.6-0.5-1.3-0.9-1.9-1.4l-0.9-0.7l-0.5-0.3c-0.1-0.1-0.3-0.2-0.4-0.2c-0.3-0.1-0.6-0.2-0.9-0.3c-0.1,0-0.3,0-0.4-0.1l-0.5,0
			c-0.7,0-1.5,0-2.2,0c-2.9,0-5.6,0-8.1,0s-4.8,0-6.8,0c-1-0.1-1.7,0.2-2.4,0.6c-0.7,0.5-1.4,0.9-2,1.3C19.9,6.1,18.4,6.8,18.4,6.8z
			"/>
	</g>
	<g>
		<path fill="#FFFFFF" d="M1.5,34.5c0,0,0.1,0.4,0.1,1.2c0.1,0.8,0.2,1.8,0.2,3.1C1.9,39.5,2,40.2,2,41c0,0.7,0.1,1.5,0.1,2.3
			c0.1,0.7,0.3,1.4,0.8,1.9c0.5,0.5,1.1,0.9,1.8,1.1c0.2,0,0.4,0.1,0.5,0.1l0.6,0c0.4,0,0.9,0,1.3,0c0.9,0,1.7,0,2.5,0.1
			c1.6,0.1,3.1,0.1,4.4,0.2c1.3,0.1,2.4,0.2,3.1,0.2c0.8,0.1,1.2,0.1,1.2,0.1s-0.4,0-1.2,0.1c-0.8,0.1-1.8,0.1-3.1,0.2
			c-1.3,0.1-2.8,0.1-4.4,0.2c-0.8,0-1.6,0-2.5,0.1c-0.4,0-0.9,0-1.3,0l-0.7,0c-0.2,0-0.5,0-0.7-0.1c-1-0.2-1.9-0.7-2.5-1.5
			c-0.6-0.8-1-1.7-1-2.6C1,42.5,1,41.7,1,41c0-0.7,0.1-1.4,0.1-2.1c0.1-1.3,0.2-2.4,0.2-3.1C1.4,35,1.5,34.5,1.5,34.5z"/>
	</g>
	<g>
		<path fill="#FFFFFF" d="M37.3,12.6c-0.8,0-1.5,0.1-2.3,0.3c-0.7,0.2-1.4,0.6-2,1c-0.5,0.5-1,1-1.3,1.7c-0.2,0.3-0.2,0.7-0.3,1
			c-0.1,0.3-0.1,0.7-0.1,1.1l0.1,1.1l0.3,1.1c0.1,0.4,0.2,0.7,0.4,1c0.1,0.4,0.3,0.7,0.4,1l0.5,1l0.6,1c0.4,0.7,0.8,1.3,1.2,1.9
			l1.3,1.9c0.4,0.6,0.8,1.4,1.2,2c0.3,0.7,0.7,1.4,0.9,2.2c0.1,0.4,0.3,0.8,0.3,1.1c0.1,0.4,0.2,0.8,0.2,1.2c0,0.4,0.1,0.8,0.1,1.2
			c0,0.2,0,0.4,0,0.6l-0.1,0.6c-0.1,0.4-0.3,0.8-0.4,1.2c-0.2,0.3-0.4,0.7-0.7,1c-0.5,0.6-1.3,1-2,1.3c-0.7,0.3-1.5,0.4-2.3,0.4v0
			c0.8,0,1.5,0,2.3-0.2c0.7-0.2,1.4-0.5,2-1c0.6-0.5,1.1-1.1,1.3-1.8c0.2-0.3,0.2-0.7,0.3-1.1c0-0.4,0.1-0.7,0.1-1.1
			c0-0.4-0.1-0.8-0.1-1.1L39,33.1c-0.2-0.7-0.5-1.4-0.8-2.1c-0.3-0.7-0.7-1.4-1.1-2c-0.4-0.7-0.8-1.3-1.3-1.9l-1.3-1.9
			c-0.4-0.7-0.8-1.3-1.2-2c-0.3-0.7-0.7-1.4-0.9-2.1c-0.1-0.4-0.2-0.7-0.3-1.1L32,19.3l-0.1-0.6l-0.1-0.6l0-0.6
			c0-0.4,0.1-0.8,0.2-1.2c0.1-0.4,0.3-0.7,0.4-1.1c0.2-0.3,0.4-0.7,0.7-1c0.5-0.6,1.2-1,1.9-1.3C35.8,12.7,36.5,12.7,37.3,12.6z
			 M37.3,12.6c-0.8,0.1-1.5,0.2-2.2,0.5c-0.7,0.3-1.3,0.7-1.8,1.3c-0.3,0.3-0.4,0.6-0.6,0.9c-0.1,0.3-0.3,0.7-0.4,1.1
			c-0.1,0.4-0.1,0.7-0.1,1.1l0,0.6l0.1,0.6l0.1,0.6l0.1,0.5c0.1,0.4,0.2,0.7,0.3,1.1c0.2,0.7,0.6,1.4,0.9,2.1c0.4,0.7,0.7,1.3,1.1,2
			l1.3,1.9c0.4,0.7,0.9,1.3,1.3,1.9c0.4,0.7,0.8,1.3,1.1,2.1c0.4,0.7,0.6,1.4,0.8,2.2l0.2,1.1c0.1,0.4,0.1,0.8,0.1,1.2
			c0,0.4-0.1,0.8-0.1,1.2c-0.1,0.4-0.2,0.8-0.4,1.1c-0.3,0.7-0.8,1.3-1.5,1.8c-0.6,0.4-1.4,0.8-2.1,0.9c-0.8,0.2-1.5,0.2-2.3,0.2
			l0,0c0.8-0.2,1.5-0.3,2.2-0.7c0.7-0.3,1.3-0.8,1.7-1.4c0.2-0.3,0.4-0.6,0.5-0.9c0.1-0.3,0.2-0.7,0.3-1L38,36l0-0.5
			c0-0.4-0.1-0.7-0.1-1.1c0-0.4-0.2-0.7-0.3-1.1c-0.1-0.4-0.2-0.7-0.4-1c-0.2-0.7-0.6-1.4-0.9-2c-0.4-0.7-0.7-1.3-1.1-1.9l-1.3-1.9
			c-0.4-0.7-0.9-1.3-1.3-2l-0.6-1c-0.2-0.4-0.3-0.7-0.5-1.1c-0.2-0.4-0.3-0.7-0.4-1.1c-0.1-0.4-0.3-0.8-0.3-1.1l-0.2-1.2l0-1.2
			c0.1-0.4,0.1-0.8,0.2-1.2c0.1-0.4,0.2-0.8,0.4-1.2l0.3-0.5l0.4-0.5c0.2-0.3,0.6-0.5,0.9-0.8c0.7-0.4,1.5-0.7,2.2-0.8
			C35.7,12.5,36.5,12.5,37.3,12.6z"/>
	</g>
	<g>
		<path fill="#FFFFFF" d="M51.9,6.8c0,0-1.6-0.7-4-2.2c-0.6-0.4-1.3-0.8-2-1.3c-0.7-0.4-1.4-0.7-2.4-0.6c-2,0-4.3,0-6.8,0
			s-5.2,0-8.1,0c-0.7,0-1.4,0-2.2,0l-0.5,0c-0.1,0-0.3,0-0.4,0.1c-0.3,0.1-0.6,0.2-0.9,0.3c-0.1,0.1-0.3,0.2-0.4,0.2l-0.5,0.3
			l-0.9,0.7c-0.6,0.4-1.3,0.9-1.9,1.4l-1,0.7l-0.5,0.4C19.2,6.8,19,6.9,18.8,7c-0.4,0.2-0.9,0.3-1.4,0.4c-0.5,0.1-0.9,0-1.3,0
			c-1.6,0-3.2,0-4.9,0s-3.3,0-5,0c-0.8,0-1.6-0.1-2.2,0.2C3.5,7.9,2.9,8.3,2.6,8.9c-0.4,0.6-0.5,1.2-0.5,2l0,2.5c0,1.7,0,3.3,0,5
			c0,3.3,0,6.5,0,9.6c0,3.1,0,6.2,0,9c0,1.4,0,2.8,0,4.2c0,0.7,0,1.4,0,2c0,0.5,0.2,1.1,0.5,1.5c0.6,0.9,1.5,1.4,2.5,1.5
			c1.1,0,2.2,0.1,3.2,0.1c2,0.1,3.8,0.2,5.3,0.3c2.9,0.2,4.6,0.4,4.6,0.4s-1.7,0.1-4.6,0.2c-1.5,0-3.2,0.1-5.3,0.1c-1,0-2.1,0-3.3,0
			c-1.3,0-2.7-0.7-3.5-2c-0.4-0.6-0.7-1.3-0.7-2.1c0-0.7,0-1.3,0-2c0-1.3,0-2.7,0-4.2c0-2.9,0-5.9-0.1-9c0-3.1,0-6.4-0.1-9.6
			c0-1.6,0-3.3,0-5l0-2.5c-0.1-0.9,0.2-2,0.7-2.8c0.5-0.8,1.4-1.5,2.3-1.8C4.6,5.9,5.5,6,6.3,6c1.7,0,3.3,0,5,0s3.3,0,4.9,0
			c0.4,0,0.8,0,1.1,0c0.3,0,0.6-0.1,0.9-0.3c0.1-0.1,0.3-0.1,0.4-0.2l0.5-0.3l1-0.7c0.6-0.5,1.3-0.9,1.9-1.3l0.9-0.7l0.5-0.3
			c0.2-0.1,0.4-0.2,0.6-0.3c0.4-0.2,0.8-0.3,1.3-0.4c0.2,0,0.4-0.1,0.7-0.1l0.6,0c0.7,0,1.5,0,2.2,0c2.9,0,5.6,0,8.1,0
			c2.5,0,4.8,0,6.8,0c0.5,0,1.1,0,1.6,0.2c0.5,0.1,1,0.4,1.4,0.7c0.7,0.5,1.4,1,1.9,1.5C50.8,5.5,51.9,6.8,51.9,6.8z"/>
	</g>
</g>
</svg>
